# xmcd
# 
# Track frame offsets:
#     150
#     57613
#     109919
# 
# Disc length: 2203
# 
# Revision: 0
# Processed by: cddbd v1.5.2PL0 Copyright (c) Steve Scherf et al.
# Submitted via: fre:ac v1.0.17
# 
DISCID=27089903
DTITLE=Shad Helmstetter PhD - Self Talk for Weight Loss CD vol 2
DYEAR=0
DGENRE=
TTITLE0=Self Talk for Weight Loss
TTITLE1=Building Self Esteem
TTITLE2=Taking Control of Your Life
EXTD=
EXTT0=
EXTT1=
EXTT2=
PLAYORDER=
